PathFileType	4	(X/Y/Z)	Walk6.trc
DataRate	CameraRate	NumFrames	NumMarkers	Units	OrigDataRate	OrigDataStartFrame	OrigNumFrames
200.000000	200.000000	8	60	mm	200.000000	650	789
Frame#	Times		RCAR		LToe		LTB1		LMT5		LMT1		LTB4		LTB3		LLFC		RWRR		RWRU		RACR1		RFA1		LUA1		LFA1		STRN		LFHD		LACR1		LElbow		LTH2		LCAR		C7		LPSI		RTB2		LASI		LWRU		RPSI		RLFC		CLAV		LWRR		RToe		RTB3		RMT1		RMT5		LTH1		RMFC		RTB1		LMFC		LTH4		LTH3		RCAL		RTB4		RLMAL		LBHD		RTH2		LTB2		RMMAL		RBHD		RBack		RElbow		RTH4		RASI		RTH3		LCAL		RUA1		LMMAL		RTH1		T10		LElbowM		LLMAL		RElbowM
			X1	Y1	Z1	X2	Y2	Z2	X3	Y3	Z3	X4	Y4	Z4	X5	Y5	Z5	X6	Y6	Z6	X7	Y7	Z7	X8	Y8	Z8	X9	Y9	Z9	X10	Y10	Z10	X11	Y11	Z11	X12	Y12	Z12	X13	Y13	Z13	X14	Y14	Z14	X15	Y15	Z15	X16	Y16	Z16	X17	Y17	Z17	X18	Y18	Z18	X19	Y19	Z19	X20	Y20	Z20	X21	Y21	Z21	X22	Y22	Z22	X23	Y23	Z23	X24	Y24	Z24	X25	Y25	Z25	X26	Y26	Z26	X27	Y27	Z27	X28	Y28	Z28	X29	Y29	Z29	X30	Y30	Z30	X31	Y31	Z31	X32	Y32	Z32	X33	Y33	Z33	X34	Y34	Z34	X35	Y35	Z35	X36	Y36	Z36	X37	Y37	Z37	X38	Y38	Z38	X39	Y39	Z39	X40	Y40	Z40	X41	Y41	Z41	X42	Y42	Z42	X43	Y43	Z43	X44	Y44	Z44	X45	Y45	Z45	X46	Y46	Z46	X47	Y47	Z47	X48	Y48	Z48	X49	Y49	Z49	X50	Y50	Z50	X51	Y51	Z51	X52	Y52	Z52	X53	Y53	Z53	X54	Y54	Z54	X55	Y55	Z55	X56	Y56	Z56	X57	Y57	Z57	X58	Y58	Z58	X59	Y59	Z59	X60	Y60	Z60

650	3.25	887.45	901.38	389.57	1150.1	129.09	-33.111	887.71	383.77	-31.339	1075.8	86.726	-112.29	1096.7	111.12	-25.472	908.91	301.72	-32.087	934.34	219.59	-33.67	812.25	512.46	-134.3	877.86	939.39	325.68	818.72	916.65	387.95	672	1494.8	222.28	790.51	1057.1	358.51	642.92	1337.4	-230.07	673.27	1037.7	-286.96	789.05	1287.6	36.447	823.76	1692.4	5.5948	665.91	1521.5	-150.16	594.24	1170.9	-275.02	803.2	753.5	-154.92	712.68	873.95	-302.15	563.7	1553.4	44.816	500.82	1062.5	-47.639	515.71	266.93	162.37	734.23	1023.1	-119.35	640.08	908.73	-296.21	489.7	1064.3	60.794	518.74	506.47	198.65	729	1462.1	25.336	720.66	912.34	-246.5	629.34	33.905	84.648	494.24	190.4	90.328	578.99	51.118	69.272	530.46	29.341	165.42	720.52	809.64	-185.32	520.1	505.29	49.324	542.87	355.43	110.8	806.66	500.94	7.6465	752.67	729.29	-174.83	782.98	648.52	-160.96	354.38	46.596	80.758	518.88	272.13	99.642	416.63	76.448	124.25	658.03	1689.8	-23.906	597.98	726.05	229.06	935.64	309	-89.507	450.94	103.91	33.671	645.97	1686.3	117.61	506.73	1429.7	163.15	671.96	1156.6	352.98	538.48	729.53	223.32	715.35	1045.4	174.08	533.43	646.56	213.5	891.05	38.538	-70.117	680.65	1318.5	301.18	946.38	117.33	-0.24272	545.69	816.76	234.54	513.58	1197.5	11.314	564.57	1145.5	-188.68	947.55	90.209	-102.46	645.05	1120.1	266.77
651	3.255	894.16	901.11	389.24	1161.4	132.87	-32.389	894.47	383.56	-31.444	1088	88.725	-111.49	1108.3	114.14	-24.803	917.11	301.84	-32.023	943.97	220.12	-33.474	816.77	511.01	-134.63	884.44	939.07	325.34	825.38	916.18	387.65	677.46	1493.9	221.91	796.83	1056.6	358.2	648.72	1336.3	-230.24	678.85	1036.4	-286.98	794.63	1286.7	36.302	829.18	1691.5	5.2546	671.59	1520.5	-150.47	600	1169.8	-275.1	807.09	751.27	-155.34	718.02	872.65	-302.13	569.19	1552.4	44.415	506.56	1061.4	-47.947	517.18	266.64	162.29	740.06	1022.2	-119.26	645.48	907.59	-296.33	495.38	1063.3	60.444	521.83	506.19	198.48	734.54	1461.1	25.064	725.99	911.03	-246.47	629.39	33.881	84.595	495.22	190.23	90.255	579.07	51.145	69.251	530.47	29.296	165.36	724.65	807.9	-185.62	523.43	504.98	49.157	544.99	354.95	110.64	810.97	499.34	7.4427	756.37	727.36	-175.32	786.36	646.39	-161.73	354.45	47.148	80.678	520.45	271.8	99.521	416.85	76.767	124.12	663.47	1688.7	-24.319	602.25	725.38	228.8	943.57	309.41	-89.512	451.3	104.07	33.597	651.35	1685.4	117.19	512.22	1428.7	162.76	678.03	1155.8	352.7	542.75	729.13	223.25	723.43	1044.6	172.13	537.28	646.2	213.34	903.67	38.044	-69.554	686.39	1317.7	300.84	957.7	118.05	0.15199	550.39	816.3	234.48	519.22	1196.5	11.001	570.28	1144.5	-188.75	959.43	90.639	-101.89	651.21	1119.2	266.5
652	3.26	900.81	900.78	388.89	1172.1	136.26	-31.856	901.19	383.34	-31.523	1099.4	90.423	-110.71	1119.2	116.86	-24.231	925.11	301.92	-31.901	953.22	220.58	-33.196	821.41	509.58	-134.9	890.96	938.69	325	831.98	915.66	387.33	682.94	1493	221.52	803.11	1056	357.88	654.55	1335.2	-230.44	684.46	1035.2	-287.02	800.23	1285.7	36.128	834.62	1690.6	4.9008	677.29	1519.4	-150.79	605.8	1168.7	-275.2	811.06	749.12	-155.84	723.4	871.33	-302.12	574.69	1551.4	43.995	512.31	1060.3	-48.265	518.69	266.35	162.21	745.89	1021.2	-119.19	650.91	906.43	-296.46	501.1	1062.2	60.089	525	505.91	198.31	740.11	1460.2	24.769	731.33	909.69	-246.46	629.43	33.868	84.542	496.22	190.07	90.183	579.15	51.177	69.234	530.47	29.257	165.3	728.81	806.17	-185.95	526.84	504.67	48.997	547.16	354.47	110.49	815.54	497.91	7.3161	760.16	725.47	-175.88	789.88	644.33	-162.51	354.53	47.749	80.603	522.05	271.47	99.403	417.06	77.119	124.01	668.93	1687.7	-24.749	606.58	724.71	228.53	951.24	309.69	-89.487	451.67	104.26	33.526	656.75	1684.4	116.77	517.73	1427.7	162.34	684.08	1155	352.4	547.08	728.72	223.16	731.61	1043.8	170.2	541.19	645.83	213.18	915.53	37.594	-68.723	692.14	1316.9	300.48	968.5	118.69	0.65003	555.14	815.84	234.4	524.9	1195.4	10.696	576.01	1143.4	-188.86	970.59	90.954	-101.17	657.35	1118.2	266.21
653	3.265	907.38	900.39	388.53	1182.1	139.21	-31.517	907.88	383.09	-31.563	1110	91.773	-109.98	1129.5	119.24	-23.764	932.88	301.94	-31.717	962.07	220.94	-32.836	826.16	508.17	-135.09	897.41	938.25	324.64	838.52	915.1	387	688.45	1492.1	221.11	809.35	1055.4	357.54	660.4	1334.1	-230.66	690.1	1034	-287.08	805.86	1284.7	35.926	840.07	1689.7	4.5334	683.01	1518.4	-151.13	611.62	1167.5	-275.33	815.15	747.07	-156.43	728.8	869.98	-302.12	580.21	1550.3	43.556	518.08	1059.3	-48.594	520.24	266.05	162.13	751.72	1020.1	-119.13	656.37	905.25	-296.6	506.87	1061.2	59.731	528.24	505.63	198.14	745.69	1459.2	24.452	736.7	908.33	-246.45	629.46	33.866	84.489	497.25	189.93	90.113	579.24	51.213	69.221	530.47	29.226	165.23	733.03	804.48	-186.31	530.31	504.34	48.845	549.37	353.98	110.35	820.39	496.65	7.2737	764.09	723.64	-176.51	793.61	642.34	-163.26	354.61	48.404	80.538	523.69	271.16	99.287	417.29	77.509	123.9	674.41	1686.7	-25.194	610.97	724.03	228.26	958.66	309.83	-89.425	452.05	104.47	33.46	662.17	1683.3	116.32	523.27	1426.7	161.92	690.11	1154.1	352.09	551.47	728.31	223.05	739.88	1042.9	168.3	545.17	645.47	213.02	926.61	37.158	-67.638	697.9	1316	300.1	978.76	119.23	1.2482	559.94	815.38	234.32	530.6	1194.3	10.4	581.77	1142.4	-188.98	981	91.114	-100.31	663.47	1117.3	265.91
654	3.27	913.88	899.95	388.16	1191.5	141.65	-31.369	914.52	382.78	-31.553	1119.8	92.735	-109.3	1139.1	121.22	-23.403	940.43	301.87	-31.467	970.51	221.17	-32.392	831.04	506.78	-135.2	903.81	937.76	324.28	844.99	914.5	386.66	693.99	1491.1	220.68	815.55	1054.7	357.2	666.29	1333	-230.89	695.77	1032.7	-287.15	811.51	1283.7	35.694	845.55	1688.8	4.1526	688.75	1517.3	-151.48	617.48	1166.4	-275.48	819.41	745.15	-157.11	734.24	868.61	-302.14	585.75	1549.3	43.098	523.87	1058.2	-48.933	521.84	265.76	162.05	757.57	1019.1	-119.1	661.86	904.04	-296.77	512.67	1060.1	59.369	531.57	505.35	197.99	751.29	1458.2	24.112	742.1	906.95	-246.46	629.49	33.873	84.436	498.29	189.81	90.047	579.33	51.25	69.212	530.47	29.204	165.17	737.33	802.85	-186.72	533.85	504	48.701	551.64	353.5	110.22	825.54	495.54	7.3224	768.2	721.88	-177.18	797.56	640.47	-163.96	354.71	49.115	80.486	525.36	270.86	99.176	417.52	77.939	123.81	679.9	1685.6	-25.654	615.42	723.35	228	965.81	309.79	-89.316	452.44	104.73	33.403	667.6	1682.3	115.87	528.82	1425.7	161.48	696.12	1153.2	351.76	555.93	727.88	222.93	748.2	1042	166.46	549.22	645.1	212.86	936.88	36.713	-66.32	703.67	1315.1	299.7	988.46	119.62	1.9415	564.79	814.92	234.23	536.32	1193.1	10.11	587.56	1141.3	-189.14	990.64	91.088	-99.328	669.55	1116.3	265.59
655	3.275	920.31	899.45	387.78	1200.2	143.55	-31.396	921.11	382.41	-31.482	1128.8	93.284	-108.66	1148.1	122.76	-23.141	947.74	301.69	-31.146	978.53	221.25	-31.865	836.04	505.4	-135.22	910.15	937.21	323.91	851.39	913.85	386.31	699.54	1490.2	220.23	821.71	1054	356.84	672.19	1331.8	-231.15	701.47	1031.4	-287.25	817.18	1282.7	35.431	851.05	1687.8	3.7582	694.5	1516.2	-151.86	623.36	1165.2	-275.65	823.85	743.39	-157.87	739.7	867.23	-302.18	591.31	1548.2	42.622	529.67	1057	-49.281	523.48	265.48	161.96	763.41	1018.1	-119.11	667.39	902.82	-296.95	518.5	1059	59.004	534.97	505.07	197.83	756.92	1457.1	23.749	747.52	905.55	-246.49	629.52	33.889	84.382	499.37	189.72	89.985	579.42	51.286	69.207	530.48	29.189	165.11	741.74	801.29	-187.16	537.45	503.66	48.565	553.95	353.01	110.09	830.97	494.6	7.468	772.5	720.22	-177.89	801.77	638.73	-164.59	354.8	49.886	80.452	527.06	270.57	99.069	417.77	78.412	123.74	685.42	1684.6	-26.129	619.93	722.67	227.74	972.71	309.58	-89.15	452.84	105.02	33.359	673.05	1681.3	115.4	534.4	1424.6	161.02	702.1	1152.3	351.41	560.45	727.46	222.8	756.53	1040.9	164.69	553.34	644.73	212.69	946.32	36.244	-64.801	709.44	1314.2	299.28	997.58	119.83	2.7239	569.71	814.46	234.13	542.07	1192	9.8258	593.37	1140.1	-189.31	999.52	90.855	-98.236	675.61	1115.3	265.25
656	3.28	926.67	898.89	387.39	1208.4	144.84	-31.57	927.62	381.96	-31.34	1137	93.4	-108.08	1156.5	123.8	-22.963	954.8	301.4	-30.751	986.13	221.17	-31.258	841.17	504.04	-135.16	916.42	936.61	323.53	857.73	913.16	385.96	705.13	1489.2	219.76	827.83	1053.3	356.47	678.12	1330.6	-231.43	707.2	1030.1	-287.36	822.88	1281.7	35.136	856.57	1686.8	3.3498	700.26	1515.1	-152.26	629.27	1164	-275.85	828.52	741.79	-158.72	745.2	865.82	-302.23	596.88	1547.1	42.128	535.5	1055.9	-49.639	525.16	265.2	161.87	769.27	1017	-119.15	672.94	901.58	-297.15	524.38	1058	58.635	538.47	504.8	197.68	762.56	1456.1	23.362	752.96	904.12	-246.53	629.53	33.914	84.327	500.46	189.66	89.931	579.52	51.319	69.205	530.48	29.18	165.04	746.3	799.81	-187.63	541.11	503.32	48.435	556.32	352.54	109.97	836.67	493.8	7.7127	777.02	718.67	-178.6	806.26	637.13	-165.13	354.91	50.721	80.44	528.81	270.31	98.966	418.03	78.932	123.7	690.95	1683.5	-26.618	624.52	721.99	227.48	979.35	309.19	-88.918	453.26	105.34	33.33	678.52	1680.2	114.91	540	1423.6	160.55	708.06	1151.4	351.05	565.03	727.03	222.65	764.85	1039.8	163.01	557.54	644.37	212.53	954.93	35.743	-63.119	715.22	1313.3	298.84	1006.1	119.84	3.589	574.69	814	234.03	547.84	1190.9	9.5438	599.21	1139	-189.52	1007.6	90.403	-97.053	681.65	1114.4	264.91
657	3.285	932.95	898.29	386.99	1215.9	145.51	-31.853	934.04	381.42	-31.117	1144.3	93.079	-107.53	1164.2	124.33	-22.846	961.6	300.98	-30.281	993.3	220.89	-30.571	846.42	502.71	-135.01	922.64	935.96	323.14	864	912.43	385.6	710.74	1488.2	219.27	833.91	1052.5	356.08	684.06	1329.4	-231.73	712.96	1028.8	-287.5	828.6	1280.7	34.807	862.11	1685.9	2.9269	706.03	1514	-152.67	635.21	1162.7	-276.07	833.42	740.37	-159.64	750.73	864.4	-302.29	602.47	1546	41.619	541.34	1054.8	-50.007	526.88	264.94	161.78	775.13	1016	-119.25	678.53	900.31	-297.37	530.29	1056.9	58.26	542.05	504.52	197.53	768.22	1455	22.952	758.43	902.68	-246.59	629.54	33.946	84.272	501.58	189.63	89.885	579.61	51.348	69.207	530.49	29.178	164.99	751.03	798.43	-188.12	544.83	502.98	48.31	558.73	352.06	109.85	842.62	493.15	8.054	781.77	717.24	-179.29	811.04	635.7	-165.57	355.03	51.625	80.456	530.59	270.07	98.869	418.3	79.5	123.68	696.51	1682.4	-27.121	629.18	721.32	227.22	985.74	308.61	-88.611	453.69	105.71	33.32	684.01	1679.2	114.41	545.63	1422.5	160.07	714	1150.5	350.67	569.7	726.6	222.5	773.11	1038.7	161.45	561.81	644	212.37	962.7	35.21	-61.318	721.01	1312.4	298.38	1014	119.62	4.5305	579.75	813.55	233.93	553.64	1189.7	9.2616	605.07	1137.8	-189.75	1015	89.732	-95.798	687.65	1113.4	264.55
